Coordinates
version=1
nRows=4
nColumns=63
inDegrees=yes

Units are S.I. units (second, meters, Newtons, ...)
If the header above contains a line with 'inDegrees', this indicates whether rotational values are in degrees (yes) or radians (no).

endheader
time	pelvis_tilt	pelvis_list	pelvis_rotation	pelvis_tx	pelvis_ty	pelvis_tz	hip_flexion_r	hip_adduction_r	hip_rotation_r	knee_angle_r	knee_angle_r_beta	ankle_angle_r	subtalar_angle_r	mtp_angle_r	hip_flexion_l	hip_adduction_l	hip_rotation_l	knee_angle_l	knee_angle_l_beta	ankle_angle_l	subtalar_angle_l	mtp_angle_l	L5_S1_Flex_Ext	L5_S1_Lat_Bending	L5_S1_axial_rotation	L4_L5_Flex_Ext	L4_L5_Lat_Bending	L4_L5_axial_rotation	L3_L4_Flex_Ext	L3_L4_Lat_Bending	L3_L4_axial_rotation	L2_L3_Flex_Ext	L2_L3_Lat_Bending	L2_L3_axial_rotation	L1_L2_Flex_Ext	L1_L2_Lat_Bending	L1_L2_axial_rotation	L1_T12_Flex_Ext	L1_T12_Lat_Bending	L1_T12_axial_rotation	Abs_r3	Abs_r2	Abs_r1	Abs_t1	Abs_t2	neck_flexion	neck_bending	neck_rotation	arm_flex_r	arm_add_r	arm_rot_r	elbow_flex_r	pro_sup_r	wrist_flex_r	wrist_dev_r	arm_flex_l	arm_add_l	arm_rot_l	elbow_flex_l	pro_sup_l	wrist_flex_l	wrist_dev_l
      2.60000000	     -8.19852793	     -1.65898062	    104.93467245	      0.16693237	      0.96566153	      0.65742792	     -4.94454843	     -4.42567797	    -24.67308223	     13.01195929	      0.22710153	     33.17218557	      6.69746733	      0.00000000	     -3.45619259	      3.27953608	      8.82674438	      8.08811878	      0.14116430	     29.43953227	     10.86995067	      0.00000000	     -0.32490631	     -0.41386265	      0.37455669	     -0.60338351	     -0.55043733	      0.39796648	     -0.53378858	     -1.00626565	      0.39796648	     -0.37133542	     -1.00626565	      0.32773710	     -0.30170800	     -0.84394872	      0.30432731	     -0.18565147	     -0.64107325	      0.28091752	     -2.32077329	     -4.68169708	      2.08317193	      0.00000000	      0.00000000	     13.80624837	     -7.75782730	     -1.48140222	     -7.70311238	    -13.23820010	     -8.08161023	     51.90599727	     85.10667881	     -6.49748918	      8.12155112	     22.73381272	     -1.24049208	    -25.93368890	    149.85990528	     82.22364835	     40.90510218	      0.73244524
      2.62500000	     -8.02535400	     -1.55772802	    105.47189620	      0.16644190	      0.96568543	      0.65672533	     -5.16832647	     -4.10301663	    -25.01009028	     12.78344979	      0.22311329	     32.95637755	      6.43982198	      0.00000000	     -3.55631284	      2.98571423	      9.00102515	      8.28601720	      0.14461828	     29.20341564	     10.86356153	      0.00000000	     -0.30564700	     -0.41057611	      0.26017290	     -0.56761705	     -0.54606623	      0.27643371	     -0.50214746	     -0.99827477	      0.27643371	     -0.34932396	     -0.99827477	      0.22765129	     -0.28382381	     -0.83724681	      0.21139048	     -0.17464670	     -0.63598240	      0.19512968	     -2.18320597	     -4.64451913	      1.44700364	      0.00000000	      0.00000000	     13.17460036	     -8.22824770	     -0.72238563	     -7.25147070	    -13.44592011	     -7.03287954	     50.97931305	     85.04291762	     -6.46215505	      8.33217381	     22.37575626	     -1.21611093	    -25.72493663	    149.85633808	     82.84337572	     40.13869593	      1.20618011
      2.65000000	     -7.93425192	     -1.45021214	    106.25186372	      0.16572791	      0.96581458	      0.65616476	     -5.46718882	     -3.79511865	    -25.36471695	     12.51783022	      0.21847735	     32.66508267	      5.77000494	      0.00000000	     -3.63946967	      2.76592162	      9.66154742	      8.56515448	      0.14949015	     28.75461493	     10.60312969	      0.00000000	     -0.28234915	     -0.42630227	      0.05845787	     -0.52435060	     -0.56698202	      0.06211149	     -0.46387141	     -1.03651135	      0.06211149	     -0.32269684	     -1.03651135	      0.05115064	     -0.26218942	     -0.86931560	      0.04749702	     -0.16133430	     -0.66034222	      0.04384341	     -2.01679171	     -4.82241658	      0.32512516	      0.00000000	      0.00000000	     12.33992490	     -8.71652724	      1.20401757	     -6.33469362	    -13.91376397	     -4.56436855	     49.52160384	     83.90885340	     -6.81411830	      8.70377218	     21.70035987	     -1.48814339	    -24.70974619	    149.84763793	     83.38819280	     37.99018136	      0.11990674
      2.67500000	     -7.88633769	     -1.30259956	    106.65930033	      0.16543688	      0.96604593	      0.65535791	     -5.75225713	     -3.56320823	    -25.47533326	     12.33027278	      0.21520386	     32.45553931	      5.25170317	      0.00000000	     -3.86691519	      2.60628920	     10.26107900	      8.65620126	      0.15107921	     28.13709435	     10.15009208	      0.00000000	     -0.25715037	     -0.44482124	     -0.05208342	     -0.47755396	     -0.59161224	     -0.05533863	     -0.42247235	     -1.08153835	     -0.05533863	     -0.29389716	     -1.08153835	     -0.04557299	     -0.23878984	     -0.90707946	     -0.04231778	     -0.14693572	     -0.68902809	     -0.03906257	     -1.83679941	     -5.03190678	     -0.28967236	      0.00000000	      0.00000000	     11.31480688	     -9.66337743	      3.12791598	     -5.64925231	    -14.27614745	     -2.46319950	     48.39208565	     82.64493240	     -6.67875148	      9.32427567	     20.95669982	     -1.66251528	    -23.63657584	    149.83889250	     84.34867325	     36.46020881	     -0.67103364
